<svg version="1.1" xmlns="http://www.w3.org/2000/svg" xmlns:xlink="http://www.w3.org/1999/xlink" width="95.17898" height="99.84079" viewBox="0,0,95.17898,99.84079"><g transform="translate(-192.32102,-130.50077)"><g data-paper-data="{&quot;isPaintingLayer&quot;:true}" stroke-miterlimit="10" stroke-dasharray="" stroke-dashoffset="0" style="mix-blend-mode: normal"><g fill="#bf008a" fill-rule="evenodd"><path d="M224.7,201.1c0.8,0.4 2.5,1.3 0.1,4.7c-2.4,3.4 -9.3,4.1 -10.1,4.1c-3.1,0.1 -6.9,0.1 -11.1,-1.3c-12.2,-4 -12.3,-17.1 -8.4,-19.2c3.8,-2.1 5.5,6 11,10.9c2.4,2.2 5.3,3 7.7,3.5c3.4,0.6 9.9,-3.2 10.8,-2.7z" stroke="#001026" stroke-width="1.2" stroke-linecap="round" stroke-linejoin="round"/><path d="M199.9,193c1.6,2.7 4.7,6.5 4.7,6.5c0,0 -3.7,-0.9 -5.8,0.8c-1.7,1.3 -1.3,3.5 -1.1,4.2c-1.3,-1.3 -2.9,-3.1 -3.9,-6.6c-1,-3.5 0,-7.7 2,-8.3c2,-0.4 2.5,1.1 4.1,3.4z" stroke="none" stroke-width="1" stroke-linecap="butt" stroke-linejoin="miter"/></g><path d="M229.7,211.5c-1.8,1.2 -8,5.6 -15.9,8.1l-0.4,0.1c-0.4,0.1 -0.6,0.6 -0.4,1c1.7,2.4 4.8,7.2 -0.7,8.9c-5.3,1.7 -15.2,-12.4 -11,-16.1c1.9,-1.4 3.6,-0.7 4.5,-0.3c0.5,0.2 1,0.2 1.5,0.1c1.2,-0.4 3.4,-1.2 5.1,-2.1c4.3,-2.2 5.3,-3.1 7.3,-4.6c2,-1.5 6.6,-5.2 10.3,-2c3.2,2.7 1.4,5.7 -0.3,6.9z" fill="#bf008a" fill-rule="evenodd" stroke="#001026" stroke-width="1.2" stroke-linecap="round" stroke-linejoin="round"/><path d="M245.6,190.7c0.5,0.4 6.6,7.6 8.6,5.8c2.4,-2.1 5.7,-6.2 9.3,-2.9c3.6,3.3 -3.2,8.9 -6.1,10.4c-6.9,3.1 -12.5,-2.8 -13.7,-4.4c-1.2,-1.6 -3.3,-4.3 -3.3,-6.9c0.1,-2.8 3.5,-3.5 5.2,-2z" fill="#ff2600" fill-rule="evenodd" stroke="#001026" stroke-width="1.2" stroke-linecap="round" stroke-linejoin="round"/><g fill-rule="evenodd"><path d="M245.7,214c2.1,1.9 6.7,5.8 6.7,5.8c0,0 14.3,-2.5 14.3,4.7c0,4.3 -7.2,5.3 -16.9,4.4c-0.6,-0.1 -1.2,-0.3 -1.7,-0.7c-2.2,-1.9 -8.5,-7.5 -12.5,-11.4c-5.9,-5.8 -10.8,-9.6 -10.8,-9.6c-8.5,-8.3 -1.6,-11.8 1.1,-16.6c2.5,-4.1 3.6,-3.3 9.6,-2.1c3.4,0.5 5.4,0.8 7.6,0.7c3.3,-0.1 2.7,4.7 1.8,7.2c0,0 -1.4,3.7 -2.7,5.6c-1.6,2.3 -2.8,3.8 -4,4.7z" fill="#bf008a" stroke="#001026" stroke-width="1.2" stroke-linecap="round" stroke-linejoin="round"/><path d="M237.3,206.6c0,0 -1.5,-1.2 -3.1,-2.7c-2,-1.8 -4,-3.3 -2,-6.4c1.8,-2.4 3.5,-5.6 8,-2.7c4.3,2.7 2.4,5.2 2.4,5.2c-2.2,4.5 -5.3,6.6 -5.3,6.6z" fill="#ff2600" stroke="none" stroke-width="1" stroke-linecap="butt" stroke-linejoin="miter"/></g><path d="M222.2,198.4c2.2,2.8 5.6,6.3 1.3,9.2c-5.9,3.3 -10.8,-6.7 -11.8,-10.2c-0.9,-3.1 1.7,-5.1 3.9,-6.8c4.3,-3.1 7.9,-5.9 11.9,-4.4c5,1.8 1.4,5.8 -1.1,7.6c-1.5,1.1 -3,2.3 -4.1,3c-0.3,0.5 -0.4,1.1 -0.1,1.6z" fill="#ff2600" fill-rule="evenodd" stroke="#001026" stroke-width="1.2" stroke-linecap="round" stroke-linejoin="round"/><g fill-rule="evenodd"><path d="M253.7,131c0.3,-0.2 0.8,-0.1 0.9,0.3l2.6,10.7c0,0 6.4,4.7 8.3,8c3.2,5.5 3.3,10 3.3,10c0,0 7.1,2.1 8.3,7.8c1.2,5.7 -3.2,16.5 -22,20.2c-18.8,3.7 -33.9,-1.4 -41,-12.8c-7.1,-11.4 4.1,-25 3.5,-24.2l-2.1,-17.9c-0.1,-0.4 0.4,-0.7 0.8,-0.5l12.1,7.9c0,0 4.5,-1.7 9.2,-1.9c2.8,-0.2 5.2,0 7.5,0.4z" fill="#bf008a" stroke="#001026" stroke-width="1.2" stroke-linecap="butt" stroke-linejoin="miter"/><path d="M268.5,160.4c0,0 6.9,1.8 8.1,7.5c1.2,5.7 -3.6,16 -22.2,19.6c-24.2,5 -35.7,-9.4 -29,-20c6.7,-10.7 18.2,-1.6 26.6,-2.2c7.2,-0.5 8,-6.8 16.5,-4.9z" fill="#ffffff" stroke="none" stroke-width="1" stroke-linecap="butt" stroke-linejoin="miter"/><path d="M237,171.1c0,-0.4 0.4,-0.7 0.8,-0.6c1.9,0.7 7.3,2.3 13.3,2.7c5.4,0.3 8.6,0 10.1,-0.3c0.5,-0.1 0.9,0.4 0.7,0.9c-0.9,2.7 -4.7,10.2 -15.2,9.6c-9.1,-1 -10,-7.4 -9.7,-12.3z" fill="#ff0000" stroke="#001026" stroke-width="1.2" stroke-linecap="round" stroke-linejoin="round"/><path d="M286.9,161.5c-4.7,3.8 -11.9,3.9 -11.9,3.9" fill="none" stroke="#001026" stroke-width="1.2" stroke-linecap="round" stroke-linejoin="round"/><path d="M285.6,172.7c-6.3,0.5 -10.2,-1.4 -10.2,-1.4" fill="none" stroke="#001026" stroke-width="1.2" stroke-linecap="round" stroke-linejoin="round"/><path d="M251.6,162.7c2.1,0 4.3,0.2 4.4,0.9c0.1,1.4 -1.4,4.2 -3,4.3c-1.8,0.2 -6,-2.3 -6,-3.9c-0.1,-1.2 2.6,-1.3 4.6,-1.3z" fill="#001026" stroke="#001026" stroke-width="1.2" stroke-linecap="round" stroke-linejoin="round"/><path d="M206.6,161.2c0,0 8.6,2.8 12.1,5.9" fill="none" stroke="#001026" stroke-width="1.2" stroke-linecap="round" stroke-linejoin="round"/><path d="M219,170.6c-4.3,1.7 -11.7,0.6 -11.7,0.6" fill="none" stroke="#001026" stroke-width="1.2" stroke-linecap="round" stroke-linejoin="round"/><g><path d="M263.4,151c2.9,4.5 3,9.6 0.2,11.4c-2.8,1.8 -7.4,-0.3 -10.4,-4.8c-2.9,-4.5 -3,-9.6 -0.2,-11.4c2.8,-1.9 7.5,0.3 10.4,4.8z" fill="#1100ff" stroke="#001026" stroke-width="1.2" stroke-linecap="round" stroke-linejoin="round"/><path d="M263,156.7c0,1.1 -0.8,2 -1.8,2c-1,0 -1.8,-0.9 -1.8,-2c0,-1.1 0.8,-2 1.8,-2c1,0 1.8,0.9 1.8,2" fill="#001026" stroke="none" stroke-width="1" stroke-linecap="butt" stroke-linejoin="miter"/></g><g><path d="M238.6,153.8c3,4.4 2.8,9.8 0.1,11.7c-3.3,1.9 -7.7,0.5 -10.7,-3.9c-3.1,-4.4 -3.3,-10.1 -0.2,-12.3c3.1,-2.3 7.8,0.1 10.8,4.5z" fill="#1100ff" stroke="#001026" stroke-width="1.2" stroke-linecap="round" stroke-linejoin="round"/><path d="M238,159.6c0,1.1 -0.8,2 -1.8,2c-1,0 -1.8,-0.9 -1.8,-2c0,-1.1 0.8,-2 1.8,-2c1,0.1 1.8,0.9 1.8,2" fill="#001026" stroke="none" stroke-width="1" stroke-linecap="butt" stroke-linejoin="miter"/></g></g><g fill="#29ff00" fill-rule="nonzero" stroke="#000000" stroke-width="1.03298" stroke-linecap="round" stroke-linejoin="miter"><path d="M245.87197,225.75872l0.155,2.28768"/><path d="M243.80607,225.20968l0.1549,2.44021"/><path d="M241.48187,224.29465v2.37915"/><path d="M239.31257,226.00275l0.1033,-2.13513"/><path d="M237.09167,223.07454l0.1549,2.07413"/><path d="M235.02567,222.15946v2.22667"/><path d="M233.11467,223.56259v-1.83017"/><path d="M231.15197,220.8174v2.13513"/><path d="M229.49927,220.51237v2.19614"/></g><g fill="#29ff00" fill-rule="nonzero" stroke="#000000" stroke-width="1.03298" stroke-linecap="round" stroke-linejoin="miter"><path d="M247.52477,216.24205l0.2582,10.06573l-19.2134,-6.40546l-0.4132,-30.65475l13.3255,2.5927z"/><path d="M253.24697,199.02232c2.5287,0.50086 7.7629,-0.33799 8.0056,0.15254c0.2397,0.47399 -4.2466,1.98874 -6.8063,2.24557c-3.6444,0.36662 -7.4168,0.19884 -10.7544,-0.56795c-4.4098,-0.88945 -8.0108,-2.76716 -11.8793,-4.27033c-2.7518,-1.06698 -4.9397,-2.57014 -7.8506,-3.50778c-2.5308,-0.76254 -6.4965,-0.12502 -8.2639,-1.52508c-1.1962,-0.95471 0.0816,-3.63039 2.066,-3.35524c7.8527,1.09013 14.0093,4.40999 20.9179,6.55794c4.9077,1.45805 9.6026,3.28692 14.565,4.27033z"/><path d="M264.55656,194.4589c1.659,0.29647 1.2107,2.10525 0.2583,2.74519c-1.9648,1.3159 -4.9553,2.25165 -7.8393,2.52012c-3.5504,0.32877 -7.4169,0.19884 -10.7544,-0.56795c-4.4098,-0.88945 -8.1275,-2.66712 -11.8793,-4.27033c-2.5453,-1.0877 -5.1804,-2.38347 -7.2309,-3.93482c-0.5671,-0.46359 -1.7592,-2.02286 -0.2582,-1.83011c5.9861,0.76986 11.0797,3.28201 17.0442,4.11778c6.7236,0.95961 14.0516,0.058 20.6596,1.22011z"/><path d="M261.17407,190.44417c2.1042,0.16719 3.8706,1.88443 3.3572,3.20275c-1.2251,1.65991 -4.1887,3.71212 -7.4891,3.81275c-4.4646,0.13483 -8.2938,-2.20529 -12.3958,-3.35524c-4.1051,-1.14989 -8.0108,-2.81168 -12.3958,-3.66027c-5.0668,-0.96321 -11.5807,-0.07259 -16.2695,-1.52508c-1.5257,-0.48255 1.1869,-2.3054 2.8407,-2.44016c4.257,-0.34714 8.7887,0.39468 12.9123,1.22005c5.7083,1.14387 10.5829,4.15623 16.786,4.72783c4.2218,0.40081 8.1926,-2.33769 12.654,-1.98264z"/><path d="M257.49307,187.93598c1.2871,0.61189 3.6898,1.36958 3.5121,2.07419c-0.1498,0.5771 -2.7601,0.11835 -4.1319,0.36603c-0.7923,0.34341 -0.9937,1.24693 -2.0918,1.31159c-1.1693,0.07258 -2.2116,-0.36054 -3.195,-0.69303c-2.569,-0.86873 -5.6783,-1.37259 -7.3156,-2.78422c-0.7035,-0.60763 1.2076,-1.2494 1.7044,-1.89117c0.2789,-0.28489 0.6425,-0.58194 0.6198,-0.88455c-0.033,-0.44351 -1.4864,-1.42138 -0.6198,-1.28111c3.4677,0.56069 6.6834,1.76857 9.9683,2.77572c0.7551,0.25075 -1.6724,-0.25501 -1.4462,-0.12201c0.6467,0.37152 2.0588,0.68081 2.9957,1.12857z"/><path d="M248.45447,188.02752c1.8614,-0.12567 3.1557,-1.45008 5.0099,-1.46413c2.3015,-0.01766 4.8406,0.48197 6.4562,1.46413c1.3108,0.79733 2.507,2.52373 1.1879,3.26371c-2.3252,1.30067 -6.0791,1.38541 -9.2968,1.46413c-2.9482,0.06408 -5.7031,-0.34223 -8.6771,-1.06757c-4.3158,-1.00473 -7.6606,-3.21858 -11.8793,-4.27032c-3.2167,-0.80282 -9.0819,0.06956 -10.3298,-1.06757c-0.939,-0.85591 3.037,-3.16614 5.6814,-3.05021c5.294,0.24095 9.2462,3.17772 14.2293,4.27027c2.4317,0.53322 5.1009,0.68145 7.6183,0.45757z"/></g></g></g></svg>